<?xml version="1.0" standalone="no"?>
<svg viewBox="0 0 200 200" xmlns="http://www.w3.org/2000/svg">
  <path fill="#FF0066" d="M39,-57.7C51.5,-60.3,63.4,-51.9,61.1,-40.4C58.7,-29,42.2,-14.5,41.2,-0.6C40.3,13.4,54.9,26.7,56,36C57,45.3,44.6,50.6,33,57.8C21.5,65,10.7,74.3,2.5,70C-5.8,65.7,-11.6,47.9,-17.7,37.5C-23.8,27.1,-30.3,24.2,-29.6,19.1C-28.9,14.1,-21,7.1,-22,-0.5C-22.9,-8.1,-32.6,-16.3,-37.1,-27.9C-41.6,-39.5,-41,-54.7,-33.9,-55.2C-26.9,-55.8,-13.4,-41.9,-0.1,-41.7C13.2,-41.6,26.5,-55.2,39,-57.7Z" transform="translate(100 100)" />
</svg>
